<?xml version="1.0" encoding="utf-8"?>
<!-- Generator: Adobe Illustrator 16.0.0, SVG Export Plug-In . SVG Version: 6.00 Build 0)  -->
<svg version="1.2" baseProfile="tiny" id="Layer_1" xmlns="http://www.w3.org/2000/svg" xmlns:xlink="http://www.w3.org/1999/xlink"
	 x="0px" y="0px" width="496.166px" height="91.555px" viewBox="0 0 496.166 91.555" xml:space="preserve">
<g>
	<path fill="#FFFFFF" d="M144.578,22.849c0-2.723-0.147-3.423-1.803-3.57l-1.178-0.11c-0.294-0.221-0.258-0.773,0.037-0.92
		c1.987-0.184,4.49-0.294,7.914-0.294c2.318,0,4.527,0.184,6.183,1.031c1.583,0.773,2.797,2.245,2.797,4.601
		c0,2.65-1.546,4.012-3.754,5.042c0,0.368,0.294,0.479,0.699,0.552c1.987,0.368,4.932,2.208,4.932,6.146
		c0,4.27-3.165,7.14-9.79,7.14c-1.067,0-2.871-0.11-4.417-0.11c-1.619,0-2.871,0.074-4.232,0.11c-0.221-0.11-0.294-0.699-0.073-0.92
		l0.662-0.11c1.951-0.332,2.024-0.736,2.024-4.601V22.849z M147.597,27.744c0,1.031,0.037,1.104,1.914,1.031
		c3.754-0.147,5.778-1.251,5.778-4.711c0-3.607-2.687-4.969-5.484-4.969c-0.81,0-1.362,0.074-1.693,0.221
		c-0.368,0.11-0.515,0.294-0.515,0.957V27.744z M147.597,36.283c0,1.325,0.074,3.202,0.773,4.012
		c0.699,0.847,1.803,1.031,2.907,1.031c3.276,0,5.778-1.473,5.778-5.153c0-2.908-1.472-6.294-7.324-6.294
		c-1.987,0-2.134,0.221-2.134,0.957V36.283z"/>
	<path fill="#FFFFFF" d="M176.485,33.817c-0.258-0.81-0.405-0.92-1.509-0.92h-5.557c-0.92,0-1.141,0.11-1.399,0.884l-1.289,3.864
		c-0.552,1.656-0.81,2.65-0.81,3.055c0,0.442,0.184,0.663,1.068,0.736l1.214,0.11c0.258,0.184,0.258,0.773-0.074,0.92
		c-0.957-0.074-2.098-0.074-3.828-0.11c-1.215,0-2.54,0.074-3.533,0.11c-0.221-0.147-0.295-0.736-0.074-0.92l1.214-0.11
		c0.883-0.074,1.693-0.479,2.208-1.804c0.662-1.693,1.693-4.085,3.239-8.208l3.754-9.938c0.515-1.325,0.736-2.024,0.625-2.613
		c0.883-0.258,1.509-0.92,1.914-1.399c0.221,0,0.479,0.074,0.552,0.332c0.479,1.619,1.067,3.312,1.62,4.932l5.042,14.796
		c1.067,3.165,1.546,3.717,3.128,3.901l0.994,0.11c0.258,0.184,0.184,0.773,0,0.92c-1.509-0.074-2.797-0.11-4.453-0.11
		c-1.767,0-3.165,0.074-4.232,0.11c-0.294-0.147-0.332-0.736-0.074-0.92l1.067-0.11c0.773-0.074,1.288-0.294,1.288-0.663
		c0-0.405-0.184-1.067-0.479-1.951L176.485,33.817z M169.197,30.542c-0.294,0.846-0.257,0.883,0.773,0.883h4.527
		c1.067,0,1.141-0.147,0.81-1.141l-1.988-5.999c-0.294-0.883-0.625-1.877-0.846-2.319h-0.074c-0.11,0.184-0.479,1.067-0.883,2.171
		L169.197,30.542z"/>
	<path fill="#FFFFFF" d="M193.89,36.762c0,3.938,0.221,4.527,2.208,4.674l1.399,0.11c0.221,0.221,0.147,0.81-0.074,0.92
		c-2.282-0.074-3.533-0.11-5.005-0.11c-1.546,0-2.871,0.037-4.821,0.11c-0.221-0.11-0.295-0.699-0.074-0.92l1.141-0.11
		c2.134-0.221,2.208-0.736,2.208-4.674v-1.877c0-2.025-0.11-2.503-1.178-4.564l-4.343-8.465c-1.251-2.429-1.803-2.613-2.908-2.797
		l-1.03-0.184c-0.221-0.258-0.184-0.773,0.074-0.92c1.178,0.074,2.502,0.11,4.269,0.11c1.693,0,3.019-0.037,3.938-0.11
		c0.332,0.11,0.332,0.699,0.11,0.92l-0.478,0.074c-1.289,0.184-1.546,0.368-1.546,0.662c0,0.368,0.957,2.466,1.141,2.834
		c1.362,2.724,2.724,5.631,4.159,8.17c1.141-1.951,2.355-4.085,3.459-6.22c1.031-1.914,2.392-4.417,2.392-4.858
		c0-0.221-0.662-0.479-1.545-0.589l-0.663-0.074c-0.258-0.258-0.221-0.773,0.074-0.92c1.325,0.074,2.392,0.11,3.533,0.11
		c1.141,0,2.171-0.037,3.422-0.11c0.295,0.184,0.332,0.699,0.074,0.92l-1.03,0.184c-1.914,0.331-3.018,2.65-4.858,5.815
		l-2.318,4.012c-1.62,2.797-1.73,3.128-1.73,5.963V36.762z"/>
	<path fill="#FFFFFF" d="M210.265,42.945c-3.092,0-5.042-0.957-5.742-1.362c-0.442-0.81-0.92-3.423-0.994-5.152
		c0.184-0.258,0.736-0.332,0.883-0.111c0.552,1.877,2.061,5.484,6.331,5.484c3.091,0,4.601-2.024,4.601-4.232
		c0-1.619-0.332-3.423-3.018-5.153l-3.497-2.282c-1.84-1.215-3.975-3.312-3.975-6.331c0-3.497,2.724-6.331,7.508-6.331
		c1.141,0,2.466,0.221,3.423,0.479c0.479,0.147,0.994,0.221,1.288,0.221c0.332,0.883,0.663,2.944,0.663,4.49
		c-0.147,0.221-0.736,0.332-0.92,0.11c-0.479-1.767-1.472-4.159-5.005-4.159c-3.607,0-4.38,2.392-4.38,4.085
		c0,2.135,1.767,3.68,3.129,4.527l2.944,1.84c2.319,1.435,4.601,3.57,4.601,7.067C218.104,40.185,215.049,42.945,210.265,42.945z"/>
	<path fill="#FFFFFF" d="M228.958,30.468c-1.767,0-1.84,0.074-1.84,1.178v5.19c0,3.864,0.184,4.379,2.246,4.601l1.067,0.11
		c0.221,0.147,0.147,0.81-0.074,0.92c-1.988-0.074-3.239-0.11-4.675-0.11c-1.583,0-2.834,0.074-4.269,0.11
		c-0.221-0.11-0.294-0.699-0.074-0.92l0.625-0.11c2.061-0.368,2.135-0.736,2.135-4.601v-13.25c0-3.865-0.258-4.49-2.171-4.637
		l-0.957-0.074c-0.221-0.147-0.147-0.81,0.074-0.92c1.803,0.037,3.055,0.11,4.637,0.11c1.436,0,2.687-0.037,4.27-0.11
		c0.221,0.11,0.294,0.773,0.073,0.92l-0.699,0.074c-2.135,0.221-2.208,0.772-2.208,4.637v4.232c0,1.141,0.073,1.178,1.84,1.178
		h10.526c1.767,0,1.84-0.037,1.84-1.178v-4.232c0-3.865-0.073-4.417-2.245-4.637l-0.7-0.074c-0.221-0.147-0.147-0.81,0.074-0.92
		c1.693,0.074,2.944,0.11,4.454,0.11c1.435,0,2.687-0.037,4.343-0.11c0.221,0.11,0.294,0.773,0.074,0.92l-0.773,0.074
		c-2.135,0.221-2.208,0.772-2.208,4.637v13.25c0,3.864,0.074,4.343,2.208,4.601l0.883,0.11c0.221,0.147,0.147,0.81-0.074,0.92
		c-1.767-0.074-3.018-0.11-4.453-0.11c-1.509,0-2.834,0.037-4.454,0.11c-0.221-0.11-0.294-0.699-0.074-0.92l0.7-0.11
		c2.245-0.368,2.245-0.736,2.245-4.601v-5.19c0-1.104-0.073-1.178-1.84-1.178H228.958z"/>
	<path fill="#FFFFFF" d="M250.117,30.468c0-7.361,5.521-12.992,13.103-12.992c8.502,0,12.771,6.146,12.771,12.624
		c0,7.435-5.668,12.845-12.771,12.845C255.049,42.945,250.117,37.093,250.117,30.468z M272.311,31.241
		c0-6.073-2.687-12.624-9.717-12.624c-3.827,0-8.796,2.613-8.796,10.673c0,5.447,2.65,12.514,9.9,12.514
		C268.115,41.804,272.311,38.492,272.311,31.241z"/>
	<path fill="#FFFFFF" d="M281.765,23.622c0-3.496-0.11-4.122-1.619-4.306l-1.178-0.147c-0.258-0.184-0.258-0.773,0.037-0.92
		c2.061-0.184,4.601-0.294,8.207-0.294c2.282,0,4.454,0.184,6.146,1.104c1.767,0.92,3.055,2.576,3.055,5.152
		c0,3.497-2.76,5.41-4.601,6.146c-0.184,0.221,0,0.589,0.185,0.883c2.944,4.748,4.895,7.692,7.397,9.79
		c0.626,0.552,1.546,0.957,2.539,1.031c0.185,0.074,0.222,0.368,0.037,0.515c-0.331,0.11-0.92,0.184-1.619,0.184
		c-3.129,0-5.006-0.92-7.618-4.637c-0.957-1.362-2.467-3.901-3.607-5.558c-0.553-0.81-1.142-1.178-2.613-1.178
		c-1.656,0-1.729,0.037-1.729,0.81v4.638c0,3.864,0.073,4.306,2.208,4.601l0.772,0.11c0.221,0.184,0.147,0.81-0.073,0.92
		c-1.656-0.074-2.907-0.11-4.38-0.11c-1.546,0-2.87,0.037-4.601,0.11c-0.221-0.11-0.294-0.663-0.073-0.92l0.92-0.11
		c2.135-0.258,2.208-0.736,2.208-4.601V23.622z M284.783,28.885c0,0.663,0,1.067,0.11,1.214c0.11,0.11,0.662,0.184,2.539,0.184
		c1.325,0,2.724-0.147,3.791-0.957c0.994-0.773,1.841-2.061,1.841-4.563c0-2.908-1.804-5.668-5.89-5.668
		c-2.281,0-2.392,0.147-2.392,1.178V28.885z"/>
	<path fill="#FFFFFF" d="M304.874,23.585c0-3.828-0.073-4.38-2.245-4.637l-0.589-0.074c-0.221-0.147-0.146-0.81,0.074-0.92
		c1.582,0.074,2.834,0.11,4.343,0.11h6.92c2.355,0,4.526,0,4.968-0.11c0.222,0.626,0.442,3.276,0.589,4.895
		c-0.146,0.221-0.735,0.294-0.92,0.074c-0.552-1.73-0.883-3.018-2.797-3.497c-0.772-0.184-1.95-0.221-3.57-0.221h-2.65
		c-1.104,0-1.104,0.074-1.104,1.472v7.361c0,1.031,0.11,1.031,1.214,1.031h2.136c1.546,0,2.687-0.074,3.128-0.221
		c0.441-0.147,0.699-0.368,0.884-1.288l0.294-1.509c0.185-0.221,0.81-0.221,0.957,0.037c0,0.883-0.147,2.319-0.147,3.717
		c0,1.325,0.147,2.724,0.147,3.533c-0.147,0.258-0.772,0.258-0.957,0.037l-0.331-1.435c-0.147-0.663-0.405-1.214-1.141-1.398
		c-0.516-0.147-1.398-0.184-2.834-0.184h-2.136c-1.104,0-1.214,0.037-1.214,0.994v5.19c0,1.951,0.11,3.202,0.699,3.828
		c0.441,0.441,1.214,0.846,4.453,0.846c2.834,0,3.901-0.147,4.711-0.552c0.663-0.368,1.656-1.656,2.613-3.57
		c0.258-0.184,0.773-0.073,0.92,0.258c-0.257,1.288-1.178,4.122-1.656,5.116c-3.312-0.074-6.588-0.11-9.863-0.11h-3.312
		c-1.583,0-2.834,0.037-5.006,0.11c-0.221-0.11-0.294-0.699-0.073-0.92l1.215-0.11c2.098-0.184,2.281-0.736,2.281-4.601V23.585z"/>
</g>
<g>
	<path fill="#FFFFFF" d="M353.25,38.602c0,1.472,0.221,2.355,0.884,2.613c0.11,0.111,0.11,0.332-0.037,0.442
		c-0.441,0-1.104,0.147-1.804,0.331c-1.951,0.516-4.601,0.957-6.588,0.957c-4.38,0-8.392-1.214-11.226-4.085
		c-2.208-2.208-3.387-5.116-3.387-8.355c0-3.128,1.031-6.293,3.313-8.723c2.466-2.576,6.109-4.306,11.667-4.306
		c2.098,0,4.048,0.405,4.674,0.552c0.699,0.147,1.841,0.405,2.282,0.332c0,1.214,0.221,3.128,0.552,5.336
		c-0.11,0.294-0.772,0.331-0.993,0.11c-1.031-3.975-3.791-5.226-7.546-5.226c-7.14,0-10.268,5.079-10.268,10.6
		c0,7.067,3.644,12.624,11.041,12.624c2.281,0,3.644-0.478,4.048-1.104c0.185-0.258,0.368-0.92,0.368-2.098V37.13
		c0-3.092-0.11-3.312-2.392-3.571l-1.62-0.184c-0.294-0.147-0.257-0.81,0-0.92c1.067,0.074,3.092,0.11,5.264,0.11
		c1.436,0,2.687-0.037,3.901-0.11c0.258,0.147,0.295,0.699,0.037,0.92l-0.589,0.074c-1.546,0.185-1.583,1.215-1.583,3.092V38.602z"
		/>
	<path fill="#FFFFFF" d="M371.243,33.817c-0.258-0.81-0.404-0.92-1.509-0.92h-5.558c-0.92,0-1.141,0.11-1.398,0.884l-1.288,3.864
		c-0.552,1.656-0.81,2.65-0.81,3.055c0,0.442,0.184,0.663,1.067,0.736l1.214,0.11c0.258,0.184,0.258,0.773-0.073,0.92
		c-0.957-0.074-2.098-0.074-3.827-0.11c-1.215,0-2.54,0.074-3.533,0.11c-0.222-0.147-0.295-0.736-0.074-0.92l1.215-0.11
		c0.883-0.074,1.692-0.479,2.208-1.804c0.662-1.693,1.693-4.085,3.239-8.208l3.754-9.938c0.515-1.325,0.735-2.024,0.625-2.613
		c0.884-0.258,1.51-0.92,1.914-1.399c0.221,0,0.479,0.074,0.552,0.332c0.479,1.619,1.067,3.312,1.62,4.932l5.042,14.796
		c1.067,3.165,1.546,3.717,3.129,3.901l0.993,0.11c0.258,0.184,0.185,0.773,0,0.92c-1.509-0.074-2.797-0.11-4.453-0.11
		c-1.767,0-3.165,0.074-4.232,0.11c-0.295-0.147-0.332-0.736-0.074-0.92l1.067-0.11c0.773-0.074,1.289-0.294,1.289-0.663
		c0-0.405-0.185-1.067-0.479-1.951L371.243,33.817z M363.956,30.542c-0.295,0.846-0.258,0.883,0.772,0.883h4.527
		c1.067,0,1.141-0.147,0.81-1.141l-1.987-5.999c-0.295-0.883-0.626-1.877-0.847-2.319h-0.073c-0.11,0.184-0.479,1.067-0.884,2.171
		L363.956,30.542z"/>
	<path fill="#FFFFFF" d="M383.274,23.622c0-3.496-0.11-4.122-1.62-4.306l-1.178-0.147c-0.257-0.184-0.257-0.773,0.037-0.92
		c2.062-0.184,4.601-0.294,8.207-0.294c2.282,0,4.454,0.184,6.147,1.104c1.767,0.92,3.055,2.576,3.055,5.152
		c0,3.497-2.761,5.41-4.601,6.146c-0.185,0.221,0,0.589,0.184,0.883c2.944,4.748,4.896,7.692,7.398,9.79
		c0.625,0.552,1.545,0.957,2.539,1.031c0.184,0.074,0.221,0.368,0.037,0.515c-0.331,0.11-0.92,0.184-1.62,0.184
		c-3.128,0-5.005-0.92-7.618-4.637c-0.957-1.362-2.466-3.901-3.607-5.558c-0.552-0.81-1.141-1.178-2.613-1.178
		c-1.656,0-1.729,0.037-1.729,0.81v4.638c0,3.864,0.073,4.306,2.208,4.601l0.773,0.11c0.221,0.184,0.147,0.81-0.074,0.92
		c-1.656-0.074-2.907-0.11-4.379-0.11c-1.546,0-2.871,0.037-4.601,0.11c-0.221-0.11-0.295-0.663-0.074-0.92l0.92-0.11
		c2.135-0.258,2.209-0.736,2.209-4.601V23.622z M386.292,28.885c0,0.663,0,1.067,0.11,1.214c0.11,0.11,0.663,0.184,2.54,0.184
		c1.324,0,2.723-0.147,3.79-0.957c0.995-0.773,1.841-2.061,1.841-4.563c0-2.908-1.804-5.668-5.889-5.668
		c-2.282,0-2.393,0.147-2.393,1.178V28.885z"/>
	<path fill="#FFFFFF" d="M406.384,22.849c0-2.576-0.184-3.349-1.729-3.57l-0.81-0.11c-0.295-0.184-0.331-0.773,0.037-0.92
		c3.128-0.184,6.109-0.294,9.237-0.294c3.092,0,5.705,0.221,8.098,1.104c4.969,1.803,7.471,5.999,7.471,10.857
		c0,4.675-2.245,8.687-6.44,10.968c-2.393,1.288-5.41,1.767-8.244,1.767c-2.355,0-4.711-0.294-5.999-0.294
		c-1.546,0-2.871,0.037-4.601,0.11c-0.222-0.11-0.295-0.699-0.074-0.92l0.847-0.11c2.135-0.294,2.208-0.736,2.208-4.601V22.849z
		 M409.402,35.989c0,1.951,0.11,3.128,0.735,4.012c0.811,1.141,2.209,1.509,4.527,1.509c7.141,0,10.343-4.674,10.343-11.52
		c0-4.048-1.951-10.894-11.594-10.894c-2.172,0-3.35,0.294-3.644,0.515c-0.295,0.221-0.368,1.141-0.368,2.797V35.989z"/>
	<path fill="#FFFFFF" d="M434.462,23.585c0-3.828-0.074-4.38-2.246-4.637l-0.589-0.074c-0.221-0.147-0.146-0.81,0.074-0.92
		c1.582,0.074,2.834,0.11,4.343,0.11h6.92c2.355,0,4.526,0,4.968-0.11c0.222,0.626,0.442,3.276,0.589,4.895
		c-0.146,0.221-0.735,0.294-0.92,0.074c-0.552-1.73-0.883-3.018-2.797-3.497c-0.772-0.184-1.95-0.221-3.57-0.221h-2.649
		c-1.104,0-1.104,0.074-1.104,1.472v7.361c0,1.031,0.11,1.031,1.215,1.031h2.135c1.546,0,2.687-0.074,3.128-0.221
		c0.441-0.147,0.699-0.368,0.884-1.288l0.294-1.509c0.185-0.221,0.81-0.221,0.957,0.037c0,0.883-0.147,2.319-0.147,3.717
		c0,1.325,0.147,2.724,0.147,3.533c-0.147,0.258-0.772,0.258-0.957,0.037l-0.331-1.435c-0.147-0.663-0.405-1.214-1.141-1.398
		c-0.516-0.147-1.398-0.184-2.834-0.184h-2.135c-1.104,0-1.215,0.037-1.215,0.994v5.19c0,1.951,0.11,3.202,0.699,3.828
		c0.441,0.441,1.215,0.846,4.453,0.846c2.834,0,3.901-0.147,4.711-0.552c0.663-0.368,1.656-1.656,2.613-3.57
		c0.258-0.184,0.773-0.073,0.92,0.258c-0.257,1.288-1.178,4.122-1.656,5.116c-3.312-0.074-6.588-0.11-9.863-0.11h-3.312
		c-1.582,0-2.834,0.037-5.006,0.11c-0.221-0.11-0.294-0.699-0.073-0.92l1.215-0.11c2.098-0.184,2.282-0.736,2.282-4.601V23.585z"/>
	<path fill="#FFFFFF" d="M475.128,36.099c0,1.104,0,5.484,0.11,6.441c-0.074,0.221-0.295,0.405-0.699,0.405
		c-0.442-0.625-1.51-1.914-4.711-5.558l-8.539-9.717c-0.993-1.141-3.496-4.159-4.27-4.968h-0.073
		c-0.147,0.441-0.184,1.288-0.184,2.392v8.023c0,1.73,0.036,6.515,0.662,7.619c0.221,0.405,0.957,0.625,1.877,0.699l1.141,0.11
		c0.221,0.294,0.185,0.736-0.073,0.92c-1.656-0.074-2.944-0.11-4.307-0.11c-1.546,0-2.539,0.037-3.827,0.11
		c-0.258-0.184-0.295-0.699-0.074-0.92l0.994-0.11c0.847-0.11,1.436-0.332,1.619-0.736c0.516-1.325,0.479-5.815,0.479-7.582V22.481
		c0-1.031-0.036-1.804-0.81-2.65c-0.516-0.515-1.398-0.772-2.282-0.883l-0.626-0.074c-0.221-0.221-0.221-0.773,0.074-0.92
		c1.546,0.11,3.497,0.11,4.159,0.11c0.589,0,1.215-0.037,1.693-0.11c0.735,1.877,5.078,6.735,6.293,8.097l3.57,4.012
		c2.539,2.834,4.343,4.896,6.072,6.662h0.074c0.146-0.184,0.146-0.773,0.146-1.546v-7.876c0-1.73-0.036-6.515-0.735-7.619
		c-0.221-0.331-0.81-0.552-2.282-0.736l-0.626-0.074c-0.257-0.221-0.221-0.81,0.074-0.92c1.692,0.074,2.944,0.11,4.343,0.11
		c1.583,0,2.54-0.037,3.791-0.11c0.295,0.184,0.295,0.699,0.074,0.92l-0.516,0.074c-1.178,0.184-1.914,0.478-2.062,0.772
		c-0.626,1.325-0.552,5.889-0.552,7.582V36.099z"/>
	<path fill="#FFFFFF" d="M487.048,42.945c-3.092,0-5.042-0.957-5.741-1.362c-0.442-0.81-0.921-3.423-0.994-5.152
		c0.184-0.258,0.736-0.332,0.883-0.111c0.553,1.877,2.062,5.484,6.331,5.484c3.091,0,4.601-2.024,4.601-4.232
		c0-1.619-0.332-3.423-3.019-5.153l-3.496-2.282c-1.84-1.215-3.975-3.312-3.975-6.331c0-3.497,2.724-6.331,7.508-6.331
		c1.141,0,2.466,0.221,3.423,0.479c0.479,0.147,0.993,0.221,1.288,0.221c0.331,0.883,0.662,2.944,0.662,4.49
		c-0.146,0.221-0.735,0.332-0.92,0.11c-0.479-1.767-1.472-4.159-5.005-4.159c-3.607,0-4.38,2.392-4.38,4.085
		c0,2.135,1.767,3.68,3.128,4.527l2.944,1.84c2.319,1.435,4.601,3.57,4.601,7.067C494.887,40.185,491.832,42.945,487.048,42.945z"/>
</g>
<g>
	<path fill="#FFFFFF" d="M157.253,66.822c0,0.739,0,3.674,0.074,4.315c-0.049,0.147-0.197,0.271-0.468,0.271
		c-0.296-0.419-1.011-1.282-3.156-3.723l-5.721-6.51c-0.666-0.765-2.343-2.787-2.861-3.329h-0.049
		c-0.099,0.296-0.123,0.863-0.123,1.603v5.376c0,1.158,0.024,4.364,0.443,5.104c0.148,0.271,0.642,0.42,1.258,0.469l0.765,0.074
		c0.147,0.197,0.123,0.493-0.05,0.616c-1.11-0.049-1.973-0.074-2.885-0.074c-1.036,0-1.701,0.025-2.564,0.074
		c-0.173-0.123-0.197-0.469-0.049-0.616l0.666-0.074c0.567-0.074,0.962-0.222,1.085-0.493c0.346-0.888,0.321-3.896,0.321-5.079
		v-7.127c0-0.69-0.025-1.208-0.542-1.775c-0.345-0.345-0.937-0.518-1.529-0.592l-0.419-0.049c-0.147-0.148-0.147-0.518,0.05-0.616
		c1.035,0.073,2.342,0.073,2.786,0.073c0.395,0,0.813-0.024,1.134-0.073c0.493,1.257,3.403,4.512,4.217,5.425l2.392,2.688
		c1.702,1.898,2.91,3.279,4.069,4.463h0.049c0.099-0.123,0.099-0.518,0.099-1.035v-5.277c0-1.159-0.024-4.364-0.493-5.104
		c-0.147-0.222-0.542-0.369-1.528-0.493l-0.419-0.049c-0.172-0.148-0.148-0.543,0.049-0.616c1.134,0.049,1.973,0.073,2.91,0.073
		c1.06,0,1.702-0.024,2.54-0.073c0.197,0.123,0.197,0.468,0.05,0.616l-0.346,0.049c-0.789,0.124-1.282,0.321-1.381,0.519
		c-0.419,0.888-0.37,3.945-0.37,5.079V66.822z"/>
	<path fill="#FFFFFF" d="M162.327,58.438c0-2.564-0.049-2.935-1.504-3.107l-0.395-0.049c-0.147-0.099-0.099-0.543,0.05-0.616
		c1.06,0.049,1.898,0.073,2.909,0.073h4.636c1.578,0,3.033,0,3.329-0.073c0.148,0.419,0.296,2.194,0.395,3.279
		c-0.099,0.147-0.493,0.197-0.616,0.049c-0.37-1.158-0.592-2.021-1.874-2.342c-0.518-0.124-1.307-0.148-2.392-0.148h-1.776
		c-0.74,0-0.74,0.05-0.74,0.986v4.932c0,0.69,0.074,0.69,0.813,0.69h1.431c1.036,0,1.8-0.049,2.096-0.147s0.469-0.247,0.592-0.863
		l0.197-1.011c0.123-0.148,0.542-0.148,0.641,0.024c0,0.592-0.099,1.554-0.099,2.49c0,0.888,0.099,1.825,0.099,2.367
		c-0.099,0.173-0.518,0.173-0.641,0.024l-0.222-0.961c-0.099-0.444-0.271-0.814-0.765-0.938c-0.345-0.099-0.937-0.123-1.899-0.123
		h-1.431c-0.739,0-0.813,0.024-0.813,0.666v3.477c0,1.307,0.074,2.146,0.469,2.564c0.296,0.296,0.813,0.567,2.984,0.567
		c1.898,0,2.614-0.099,3.156-0.37c0.444-0.247,1.109-1.109,1.751-2.392c0.172-0.124,0.518-0.05,0.616,0.172
		c-0.173,0.863-0.789,2.762-1.109,3.428c-2.22-0.049-4.414-0.074-6.609-0.074h-2.22c-1.06,0-1.898,0.025-3.354,0.074
		c-0.147-0.074-0.197-0.469-0.049-0.616l0.813-0.074c1.405-0.123,1.529-0.493,1.529-3.082V58.438z"/>
	<path fill="#FFFFFF" d="M175.762,58.487c0-2.613-0.049-3.032-1.504-3.156l-0.616-0.049c-0.148-0.099-0.099-0.543,0.049-0.616
		c1.233,0.049,2.071,0.073,3.107,0.073c0.986,0,1.825-0.024,3.058-0.073c0.148,0.073,0.197,0.518,0.049,0.616l-0.617,0.049
		c-1.455,0.124-1.504,0.543-1.504,3.156v8.778c0,2.614,0.049,2.959,1.504,3.132l0.617,0.074c0.148,0.099,0.099,0.542-0.049,0.616
		c-1.233-0.049-2.071-0.074-3.058-0.074c-1.036,0-1.874,0.025-3.107,0.074c-0.148-0.074-0.197-0.469-0.049-0.616l0.616-0.074
		c1.455-0.173,1.504-0.518,1.504-3.132V58.487z"/>
	<path fill="#FFFFFF" d="M195.956,68.499c0,0.986,0.148,1.578,0.592,1.751c0.074,0.073,0.074,0.222-0.024,0.296
		c-0.296,0-0.74,0.099-1.208,0.222c-1.307,0.345-3.083,0.641-4.414,0.641c-2.935,0-5.623-0.813-7.521-2.736
		c-1.479-1.479-2.269-3.428-2.269-5.598c0-2.096,0.69-4.217,2.219-5.844c1.652-1.727,4.093-2.886,7.817-2.886
		c1.406,0,2.713,0.271,3.132,0.37c0.469,0.099,1.233,0.271,1.529,0.222c0,0.814,0.148,2.097,0.37,3.576
		c-0.074,0.197-0.518,0.222-0.666,0.073c-0.69-2.663-2.54-3.501-5.055-3.501c-4.784,0-6.88,3.402-6.88,7.102
		c0,4.734,2.441,8.458,7.398,8.458c1.529,0,2.441-0.321,2.712-0.74c0.123-0.173,0.247-0.616,0.247-1.405v-0.986
		c0-2.071-0.074-2.22-1.603-2.392l-1.085-0.124c-0.197-0.099-0.172-0.542,0-0.616c0.715,0.05,2.071,0.074,3.526,0.074
		c0.962,0,1.8-0.024,2.614-0.074c0.172,0.099,0.197,0.469,0.025,0.616l-0.395,0.05c-1.036,0.123-1.061,0.813-1.061,2.071V68.499z"/>
	<path fill="#FFFFFF" d="M203.841,63.05c-1.184,0-1.233,0.049-1.233,0.789v3.477c0,2.589,0.124,2.935,1.504,3.082l0.715,0.074
		c0.148,0.099,0.099,0.542-0.049,0.616c-1.332-0.049-2.17-0.074-3.131-0.074c-1.061,0-1.899,0.05-2.86,0.074
		c-0.148-0.074-0.197-0.469-0.05-0.616l0.419-0.074c1.381-0.246,1.43-0.493,1.43-3.082v-8.877c0-2.589-0.173-3.009-1.455-3.107
		l-0.641-0.049c-0.148-0.099-0.099-0.543,0.049-0.616c1.208,0.024,2.047,0.073,3.107,0.073c0.961,0,1.8-0.024,2.86-0.073
		c0.147,0.073,0.197,0.518,0.049,0.616l-0.468,0.049c-1.43,0.148-1.479,0.519-1.479,3.107v2.836c0,0.764,0.049,0.789,1.233,0.789
		h7.053c1.184,0,1.233-0.025,1.233-0.789v-2.836c0-2.589-0.049-2.959-1.504-3.107l-0.469-0.049
		c-0.148-0.099-0.099-0.543,0.049-0.616c1.134,0.049,1.973,0.073,2.984,0.073c0.961,0,1.8-0.024,2.909-0.073
		c0.148,0.073,0.197,0.518,0.05,0.616l-0.518,0.049c-1.43,0.148-1.479,0.519-1.479,3.107v8.877c0,2.589,0.049,2.909,1.479,3.082
		l0.592,0.074c0.148,0.099,0.099,0.542-0.049,0.616c-1.184-0.049-2.022-0.074-2.983-0.074c-1.011,0-1.899,0.025-2.984,0.074
		c-0.148-0.074-0.197-0.469-0.049-0.616l0.469-0.074c1.504-0.246,1.504-0.493,1.504-3.082v-3.477c0-0.74-0.049-0.789-1.233-0.789
		H203.841z"/>
	<path fill="#FFFFFF" d="M219.494,57.945c0-1.825-0.099-2.293-1.208-2.392l-0.789-0.074c-0.197-0.148-0.173-0.518,0.024-0.616
		c1.332-0.124,3.008-0.197,5.302-0.197c1.553,0,3.033,0.123,4.143,0.69c1.06,0.518,1.875,1.504,1.875,3.082
		c0,1.775-1.037,2.688-2.516,3.378c0,0.247,0.197,0.32,0.469,0.37c1.332,0.246,3.305,1.479,3.305,4.118
		c0,2.86-2.121,4.783-6.56,4.783c-0.715,0-1.923-0.074-2.959-0.074c-1.085,0-1.923,0.05-2.836,0.074
		c-0.147-0.074-0.197-0.469-0.049-0.616l0.443-0.074c1.307-0.222,1.356-0.493,1.356-3.082V57.945z M221.516,61.225
		c0,0.69,0.025,0.74,1.282,0.69c2.515-0.099,3.872-0.838,3.872-3.156c0-2.416-1.8-3.329-3.674-3.329
		c-0.542,0-0.913,0.05-1.134,0.148c-0.247,0.074-0.345,0.197-0.345,0.641V61.225z M221.516,66.945c0,0.888,0.049,2.146,0.518,2.688
		c0.468,0.567,1.208,0.69,1.948,0.69c2.195,0,3.872-0.986,3.872-3.452c0-1.947-0.986-4.216-4.907-4.216
		c-1.332,0-1.43,0.147-1.43,0.641V66.945z"/>
	<path fill="#FFFFFF" d="M231.425,63.05c0-4.932,3.699-8.705,8.778-8.705c5.696,0,8.556,4.118,8.556,8.458
		c0,4.981-3.797,8.605-8.556,8.605C234.729,71.408,231.425,67.488,231.425,63.05z M246.293,63.567c0-4.068-1.8-8.458-6.51-8.458
		c-2.564,0-5.893,1.751-5.893,7.151c0,3.649,1.775,8.384,6.633,8.384C243.483,70.645,246.293,68.425,246.293,63.567z"/>
	<path fill="#FFFFFF" d="M252.084,58.463c0-2.343-0.074-2.762-1.085-2.885l-0.789-0.099c-0.173-0.123-0.173-0.518,0.024-0.616
		c1.381-0.124,3.082-0.197,5.499-0.197c1.528,0,2.983,0.123,4.117,0.739c1.184,0.616,2.047,1.727,2.047,3.452
		c0,2.343-1.85,3.625-3.082,4.118c-0.123,0.147,0,0.395,0.123,0.592c1.973,3.181,3.279,5.153,4.956,6.559
		c0.42,0.37,1.036,0.642,1.702,0.69c0.123,0.05,0.147,0.247,0.024,0.346c-0.222,0.074-0.616,0.123-1.085,0.123
		c-2.096,0-3.354-0.616-5.104-3.106c-0.641-0.913-1.652-2.614-2.416-3.724c-0.37-0.543-0.765-0.789-1.751-0.789
		c-1.109,0-1.159,0.024-1.159,0.542v3.107c0,2.589,0.05,2.885,1.479,3.082l0.518,0.074c0.148,0.123,0.099,0.542-0.049,0.616
		c-1.109-0.049-1.948-0.074-2.935-0.074c-1.035,0-1.923,0.025-3.082,0.074c-0.148-0.074-0.197-0.443-0.05-0.616l0.617-0.074
		c1.43-0.173,1.479-0.493,1.479-3.082V58.463z M254.105,61.989c0,0.443,0,0.715,0.074,0.813c0.074,0.074,0.443,0.123,1.701,0.123
		c0.888,0,1.825-0.099,2.54-0.641c0.666-0.518,1.232-1.381,1.232-3.058c0-1.948-1.208-3.798-3.945-3.798
		c-1.528,0-1.603,0.099-1.603,0.789V61.989z"/>
	<path fill="#FFFFFF" d="M270.277,63.05c-1.184,0-1.233,0.049-1.233,0.789v3.477c0,2.589,0.123,2.935,1.505,3.082l0.715,0.074
		c0.148,0.099,0.099,0.542-0.049,0.616c-1.332-0.049-2.171-0.074-3.133-0.074c-1.06,0-1.898,0.05-2.86,0.074
		c-0.147-0.074-0.197-0.469-0.049-0.616l0.419-0.074c1.381-0.246,1.431-0.493,1.431-3.082v-8.877c0-2.589-0.173-3.009-1.455-3.107
		l-0.642-0.049c-0.147-0.099-0.099-0.543,0.05-0.616c1.208,0.024,2.047,0.073,3.106,0.073c0.962,0,1.801-0.024,2.861-0.073
		c0.148,0.073,0.197,0.518,0.05,0.616l-0.469,0.049c-1.431,0.148-1.48,0.519-1.48,3.107v2.836c0,0.764,0.05,0.789,1.233,0.789h7.053
		c1.184,0,1.232-0.025,1.232-0.789v-2.836c0-2.589-0.049-2.959-1.504-3.107l-0.469-0.049c-0.147-0.099-0.099-0.543,0.05-0.616
		c1.134,0.049,1.973,0.073,2.983,0.073c0.962,0,1.8-0.024,2.91-0.073c0.147,0.073,0.197,0.518,0.049,0.616l-0.518,0.049
		c-1.431,0.148-1.479,0.519-1.479,3.107v8.877c0,2.589,0.049,2.909,1.479,3.082l0.592,0.074c0.147,0.099,0.099,0.542-0.05,0.616
		c-1.184-0.049-2.021-0.074-2.983-0.074c-1.011,0-1.898,0.025-2.983,0.074c-0.148-0.074-0.197-0.469-0.05-0.616l0.469-0.074
		c1.504-0.246,1.504-0.493,1.504-3.082v-3.477c0-0.74-0.049-0.789-1.232-0.789H270.277z"/>
	<path fill="#FFFFFF" d="M283.908,63.05c0-4.932,3.698-8.705,8.778-8.705c5.696,0,8.557,4.118,8.557,8.458
		c0,4.981-3.798,8.605-8.557,8.605C287.212,71.408,283.908,67.488,283.908,63.05z M298.777,63.567c0-4.068-1.8-8.458-6.51-8.458
		c-2.564,0-5.894,1.751-5.894,7.151c0,3.649,1.775,8.384,6.633,8.384C295.966,70.645,298.777,68.425,298.777,63.567z"/>
	<path fill="#FFFFFF" d="M302.545,63.05c0-4.932,3.698-8.705,8.778-8.705c5.696,0,8.557,4.118,8.557,8.458
		c0,4.981-3.797,8.605-8.557,8.605C305.849,71.408,302.545,67.488,302.545,63.05z M317.414,63.567c0-4.068-1.8-8.458-6.511-8.458
		c-2.564,0-5.893,1.751-5.893,7.151c0,3.649,1.775,8.384,6.634,8.384C314.604,70.645,317.414,68.425,317.414,63.567z"/>
	<path fill="#FFFFFF" d="M323.203,57.945c0-1.727-0.123-2.244-1.158-2.392l-0.543-0.074c-0.197-0.123-0.222-0.518,0.024-0.616
		c2.097-0.124,4.094-0.197,6.189-0.197c2.071,0,3.822,0.147,5.425,0.739c3.329,1.208,5.006,4.02,5.006,7.274
		c0,3.132-1.504,5.819-4.315,7.348c-1.603,0.863-3.625,1.184-5.523,1.184c-1.578,0-3.156-0.197-4.02-0.197
		c-1.035,0-1.923,0.025-3.082,0.074c-0.147-0.074-0.197-0.469-0.049-0.616l0.566-0.074c1.431-0.197,1.479-0.493,1.479-3.082V57.945z
		 M325.226,66.748c0,1.307,0.074,2.096,0.493,2.688c0.542,0.765,1.479,1.012,3.033,1.012c4.783,0,6.929-3.132,6.929-7.719
		c0-2.712-1.307-7.299-7.768-7.299c-1.455,0-2.244,0.197-2.441,0.346c-0.197,0.147-0.246,0.765-0.246,1.874V66.748z"/>
</g>
<g>
	<path fill="#FFFFFF" d="M353.854,65.293c-0.173-0.542-0.271-0.616-1.012-0.616h-3.724c-0.616,0-0.765,0.074-0.938,0.592
		l-0.862,2.589c-0.37,1.11-0.543,1.775-0.543,2.047c0,0.296,0.123,0.444,0.715,0.493l0.814,0.074
		c0.172,0.123,0.172,0.518-0.05,0.616c-0.641-0.049-1.405-0.049-2.564-0.074c-0.813,0-1.701,0.05-2.367,0.074
		c-0.147-0.099-0.197-0.493-0.049-0.616l0.813-0.074c0.592-0.049,1.134-0.32,1.479-1.208c0.443-1.135,1.134-2.737,2.17-5.499
		l2.515-6.657c0.346-0.888,0.493-1.356,0.42-1.751c0.592-0.173,1.011-0.616,1.282-0.938c0.147,0,0.321,0.05,0.37,0.223
		c0.32,1.085,0.715,2.219,1.085,3.304l3.378,9.913c0.716,2.12,1.036,2.49,2.097,2.613l0.665,0.074c0.173,0.123,0.124,0.518,0,0.616
		c-1.011-0.049-1.874-0.074-2.983-0.074c-1.184,0-2.12,0.05-2.836,0.074c-0.197-0.099-0.222-0.493-0.049-0.616l0.715-0.074
		c0.518-0.049,0.863-0.197,0.863-0.443c0-0.271-0.123-0.716-0.32-1.308L353.854,65.293z M348.971,63.099
		c-0.197,0.567-0.172,0.592,0.519,0.592h3.033c0.715,0,0.765-0.099,0.543-0.765l-1.333-4.019c-0.197-0.592-0.419-1.258-0.566-1.554
		h-0.05c-0.074,0.123-0.32,0.715-0.592,1.455L348.971,63.099z"/>
	<path fill="#FFFFFF" d="M363.737,71.408c-2.071,0-3.378-0.641-3.847-0.912c-0.296-0.542-0.616-2.293-0.665-3.452
		c0.123-0.173,0.493-0.222,0.592-0.074c0.369,1.258,1.381,3.675,4.241,3.675c2.071,0,3.082-1.356,3.082-2.836
		c0-1.085-0.222-2.293-2.022-3.452l-2.342-1.529c-1.233-0.813-2.663-2.219-2.663-4.241c0-2.342,1.824-4.241,5.03-4.241
		c0.764,0,1.651,0.148,2.293,0.321c0.32,0.099,0.666,0.147,0.863,0.147c0.222,0.592,0.443,1.973,0.443,3.009
		c-0.099,0.147-0.493,0.222-0.616,0.073c-0.32-1.184-0.986-2.786-3.354-2.786c-2.417,0-2.935,1.603-2.935,2.737
		c0,1.43,1.184,2.466,2.096,3.033l1.973,1.232c1.554,0.962,3.083,2.392,3.083,4.734C368.99,69.56,366.943,71.408,363.737,71.408z"/>
	<path fill="#FFFFFF" d="M374.831,71.408c-2.071,0-3.379-0.641-3.848-0.912c-0.296-0.542-0.616-2.293-0.665-3.452
		c0.123-0.173,0.493-0.222,0.592-0.074c0.369,1.258,1.381,3.675,4.241,3.675c2.071,0,3.082-1.356,3.082-2.836
		c0-1.085-0.222-2.293-2.021-3.452l-2.343-1.529c-1.233-0.813-2.663-2.219-2.663-4.241c0-2.342,1.824-4.241,5.03-4.241
		c0.765,0,1.652,0.148,2.293,0.321c0.32,0.099,0.666,0.147,0.863,0.147c0.222,0.592,0.443,1.973,0.443,3.009
		c-0.099,0.147-0.493,0.222-0.616,0.073c-0.32-1.184-0.986-2.786-3.354-2.786c-2.416,0-2.935,1.603-2.935,2.737
		c0,1.43,1.184,2.466,2.097,3.033l1.973,1.232c1.553,0.962,3.082,2.392,3.082,4.734C380.083,69.56,378.036,71.408,374.831,71.408z"
		/>
	<path fill="#FFFFFF" d="M381.534,63.05c0-4.932,3.699-8.705,8.778-8.705c5.697,0,8.558,4.118,8.558,8.458
		c0,4.981-3.798,8.605-8.558,8.605C384.839,71.408,381.534,67.488,381.534,63.05z M396.404,63.567c0-4.068-1.801-8.458-6.511-8.458
		c-2.564,0-5.894,1.751-5.894,7.151c0,3.649,1.775,8.384,6.633,8.384C393.593,70.645,396.404,68.425,396.404,63.567z"/>
	<path fill="#FFFFFF" d="M403.229,56.441c1.801-1.406,4.094-2.097,6.658-2.097c1.331,0,3.205,0.271,4.364,0.592
		c0.296,0.074,0.469,0.124,0.69,0.099c0.025,0.567,0.148,2.121,0.346,3.625c-0.123,0.173-0.493,0.197-0.666,0.05
		c-0.37-1.677-1.479-3.601-5.055-3.601c-3.773,0-6.979,2.392-6.979,7.496c0,5.179,3.279,8.039,7.323,8.039
		c3.181,0,4.587-2.071,5.154-3.526c0.172-0.123,0.542-0.074,0.641,0.099c-0.173,1.282-0.813,2.909-1.184,3.378
		c-0.296,0.05-0.592,0.148-0.863,0.247c-0.542,0.197-2.317,0.566-3.896,0.566c-2.22,0-4.34-0.443-6.141-1.651
		c-1.973-1.356-3.501-3.601-3.501-6.781C400.122,60.238,401.354,57.896,403.229,56.441z"/>
	<path fill="#FFFFFF" d="M418.39,58.487c0-2.613-0.05-3.032-1.505-3.156l-0.616-0.049c-0.147-0.099-0.099-0.543,0.05-0.616
		c1.232,0.049,2.071,0.073,3.106,0.073c0.986,0,1.825-0.024,3.058-0.073c0.148,0.073,0.197,0.518,0.05,0.616l-0.617,0.049
		c-1.454,0.124-1.504,0.543-1.504,3.156v8.778c0,2.614,0.05,2.959,1.504,3.132l0.617,0.074c0.147,0.099,0.099,0.542-0.05,0.616
		c-1.232-0.049-2.071-0.074-3.058-0.074c-1.035,0-1.874,0.025-3.106,0.074c-0.148-0.074-0.197-0.469-0.05-0.616l0.616-0.074
		c1.455-0.173,1.505-0.518,1.505-3.132V58.487z"/>
	<path fill="#FFFFFF" d="M432.64,65.293c-0.173-0.542-0.271-0.616-1.011-0.616h-3.724c-0.616,0-0.765,0.074-0.938,0.592
		l-0.862,2.589c-0.37,1.11-0.543,1.775-0.543,2.047c0,0.296,0.123,0.444,0.715,0.493l0.814,0.074
		c0.172,0.123,0.172,0.518-0.05,0.616c-0.641-0.049-1.405-0.049-2.564-0.074c-0.813,0-1.701,0.05-2.367,0.074
		c-0.147-0.099-0.197-0.493-0.049-0.616l0.813-0.074c0.592-0.049,1.134-0.32,1.479-1.208c0.443-1.135,1.134-2.737,2.17-5.499
		l2.515-6.657c0.346-0.888,0.493-1.356,0.42-1.751c0.592-0.173,1.011-0.616,1.282-0.938c0.147,0,0.32,0.05,0.369,0.223
		c0.321,1.085,0.716,2.219,1.085,3.304l3.379,9.913c0.716,2.12,1.036,2.49,2.097,2.613l0.665,0.074c0.173,0.123,0.124,0.518,0,0.616
		c-1.011-0.049-1.874-0.074-2.983-0.074c-1.185,0-2.121,0.05-2.836,0.074c-0.197-0.099-0.223-0.493-0.05-0.616l0.715-0.074
		c0.519-0.049,0.863-0.197,0.863-0.443c0-0.271-0.123-0.716-0.32-1.308L432.64,65.293z M427.757,63.099
		c-0.197,0.567-0.172,0.592,0.519,0.592h3.032c0.716,0,0.765-0.099,0.543-0.765l-1.332-4.019c-0.197-0.592-0.419-1.258-0.566-1.554
		h-0.05c-0.074,0.123-0.32,0.715-0.592,1.455L427.757,63.099z"/>
	<path fill="#FFFFFF" d="M444.349,67.315c0,2.589,0.05,2.959,1.479,3.082l0.789,0.074c0.148,0.099,0.099,0.542-0.049,0.616
		c-1.405-0.049-2.244-0.074-3.23-0.074s-1.85,0.025-3.428,0.074c-0.147-0.074-0.197-0.493,0-0.616l0.888-0.074
		c1.406-0.123,1.529-0.493,1.529-3.082V56.293c0-0.765,0-0.789-0.74-0.789h-1.355c-1.061,0-2.417,0.05-3.033,0.616
		c-0.592,0.543-0.839,1.085-1.109,1.702c-0.197,0.147-0.543,0.024-0.642-0.173c0.395-1.109,0.765-2.688,0.938-3.675
		c0.073-0.05,0.395-0.074,0.468,0c0.148,0.79,0.962,0.765,2.097,0.765h9.986c1.331,0,1.554-0.049,1.923-0.69
		c0.124-0.05,0.395-0.025,0.444,0.073c-0.271,1.012-0.444,3.01-0.37,3.749c-0.099,0.197-0.518,0.197-0.641,0.05
		c-0.074-0.617-0.247-1.529-0.617-1.801c-0.566-0.419-1.504-0.616-2.86-0.616h-1.75c-0.74,0-0.716,0.024-0.716,0.839V67.315z"/>
	<path fill="#FFFFFF" d="M453.739,58.487c0-2.613-0.05-3.032-1.504-3.156l-0.617-0.049c-0.147-0.099-0.099-0.543,0.05-0.616
		c1.232,0.049,2.071,0.073,3.106,0.073c0.987,0,1.825-0.024,3.059-0.073c0.147,0.073,0.197,0.518,0.049,0.616l-0.616,0.049
		c-1.455,0.124-1.504,0.543-1.504,3.156v8.778c0,2.614,0.049,2.959,1.504,3.132l0.616,0.074c0.148,0.099,0.099,0.542-0.049,0.616
		c-1.233-0.049-2.071-0.074-3.059-0.074c-1.035,0-1.874,0.025-3.106,0.074c-0.148-0.074-0.197-0.469-0.05-0.616l0.617-0.074
		c1.454-0.173,1.504-0.518,1.504-3.132V58.487z"/>
	<path fill="#FFFFFF" d="M459.088,63.05c0-4.932,3.699-8.705,8.778-8.705c5.696,0,8.558,4.118,8.558,8.458
		c0,4.981-3.799,8.605-8.558,8.605C462.393,71.408,459.088,67.488,459.088,63.05z M473.957,63.567c0-4.068-1.8-8.458-6.51-8.458
		c-2.564,0-5.894,1.751-5.894,7.151c0,3.649,1.775,8.384,6.633,8.384C471.146,70.645,473.957,68.425,473.957,63.567z"/>
	<path fill="#FFFFFF" d="M493.013,66.822c0,0.739,0,3.674,0.074,4.315c-0.049,0.147-0.197,0.271-0.469,0.271
		c-0.296-0.419-1.011-1.282-3.156-3.723l-5.721-6.51c-0.665-0.765-2.342-2.787-2.86-3.329h-0.049
		c-0.099,0.296-0.123,0.863-0.123,1.603v5.376c0,1.158,0.024,4.364,0.443,5.104c0.148,0.271,0.642,0.42,1.258,0.469l0.765,0.074
		c0.147,0.197,0.123,0.493-0.05,0.616c-1.109-0.049-1.973-0.074-2.885-0.074c-1.036,0-1.701,0.025-2.564,0.074
		c-0.173-0.123-0.197-0.469-0.05-0.616l0.666-0.074c0.567-0.074,0.962-0.222,1.085-0.493c0.346-0.888,0.32-3.896,0.32-5.079v-7.127
		c0-0.69-0.024-1.208-0.542-1.775c-0.346-0.345-0.938-0.518-1.529-0.592l-0.419-0.049c-0.147-0.148-0.147-0.518,0.05-0.616
		c1.035,0.073,2.342,0.073,2.786,0.073c0.395,0,0.813-0.024,1.134-0.073c0.493,1.257,3.403,4.512,4.217,5.425l2.392,2.688
		c1.702,1.898,2.91,3.279,4.069,4.463h0.049c0.099-0.123,0.099-0.518,0.099-1.035v-5.277c0-1.159-0.024-4.364-0.493-5.104
		c-0.147-0.222-0.542-0.369-1.528-0.493l-0.42-0.049c-0.172-0.148-0.147-0.543,0.05-0.616c1.134,0.049,1.973,0.073,2.909,0.073
		c1.061,0,1.702-0.024,2.54-0.073c0.197,0.123,0.197,0.468,0.05,0.616l-0.346,0.049c-0.789,0.124-1.282,0.321-1.381,0.519
		c-0.419,0.888-0.37,3.945-0.37,5.079V66.822z"/>
</g>
<g>
	<polygon fill="#FFFFFF" points="38.42,32.597 5.331,36.208 61.12,0.021 	"/>
	<polygon fill="#FFFFFF" points="91.336,32.596 124.427,36.207 68.637,0.021 	"/>
	<polygon fill="#FFFFFF" points="42.916,32.596 64.362,0 87.651,32.596 	"/>
</g>
<g>
	<polygon fill="#FFFFFF" points="94.545,39.081 65.443,38.934 65.434,34.511 94.545,34.511 129.764,39.183 128.197,43.789 	"/>
	<polygon fill="#FFFFFF" points="35.211,39.081 64.313,38.934 64.323,34.511 35.211,34.511 -0.007,39.183 1.559,43.789 	"/>
	<rect x="63.582" y="34.503" fill="#FFFFFF" width="4.239" height="4.426"/>
</g>
<g>
	<polygon fill="#FFFFFF" points="43.303,44.683 43.303,46.912 42.105,46.912 42.105,57.336 54.873,44.683 	"/>
	<polygon fill="#FFFFFF" points="36.688,44.241 36.658,44.241 11.429,47.534 11.429,49.989 8.923,50.43 8.923,91.555 37.665,91.555 
		37.665,47.336 36.688,47.336 	"/>
	<polygon fill="#FFFFFF" points="86.453,44.683 74.883,44.683 87.651,57.336 87.651,46.912 86.453,46.912 	"/>
	<polygon fill="#FFFFFF" points="64.878,44.683 62.435,44.683 42.105,64.83 42.105,91.555 64.878,91.555 87.651,91.555 
		87.651,64.83 67.321,44.683 	"/>
	<polygon fill="#FFFFFF" points="118.329,49.989 118.329,47.534 93.098,44.241 93.067,44.241 93.067,47.336 92.091,47.336 
		92.091,91.555 120.834,91.555 120.834,50.43 	"/>
</g>
</svg>
